<svg width="20" height="22" viewBox="0 0 20 22" fill="none" xmlns="http://www.w3.org/2000/svg">
<path d="M2.28356 13.8136L2.28311 13.814C1.65215 14.4434 1.22227 15.2459 1.04797 16.1199C0.873669 16.9939 0.962796 17.8999 1.30405 18.7232C1.64531 19.5464 2.22333 20.2498 2.96483 20.7442C3.70563 21.2381 4.57626 21.5011 5.46656 21.5C6.05928 21.4925 6.64469 21.3679 7.18914 21.1335C7.7344 20.8987 8.22781 20.5583 8.64095 20.132L8.64662 20.1262L8.64666 20.1262L17.1365 11.6464C17.1365 11.6464 17.1366 11.6463 17.1367 11.6462C18.3556 10.4272 19.0404 8.77391 19.0404 7.05C19.0404 5.326 18.3555 3.67261 17.1365 2.45355C15.9174 1.2345 14.264 0.549644 12.54 0.549644C10.8164 0.549644 9.16343 1.23416 7.94447 2.45265C7.94416 2.45295 7.94386 2.45325 7.94356 2.45355L3.01022 7.43674C2.93455 7.53065 2.89526 7.64891 2.89992 7.76976C2.90478 7.89559 2.95695 8.01496 3.046 8.10401C3.13504 8.19306 3.25441 8.24522 3.38025 8.25008C3.5004 8.25473 3.618 8.21591 3.71164 8.1411L8.64468 3.15823L8.6467 3.1562C9.67941 2.12496 11.0795 1.54619 12.5389 1.54722C13.9983 1.54825 15.3976 2.129 16.4288 3.1617C17.4601 4.1944 18.0388 5.59446 18.0378 7.05389C18.0368 8.5132 17.4561 9.91234 16.4236 10.9436L2.28356 13.8136ZM2.28356 13.8136L10.7636 5.33355L10.764 5.33314M2.28356 13.8136L10.764 5.33314M10.764 5.33314C11.2326 4.86343 11.8686 4.59911 12.5321 4.59833C13.1955 4.59755 13.8322 4.86037 14.3019 5.32897C14.7716 5.79757 15.0359 6.43357 15.0367 7.09705C15.0375 7.76034 14.7748 8.39678 14.3065 8.86645C14.3063 8.86659 14.3062 8.86672 14.306 8.86686L5.81751 17.3554C5.81737 17.3555 5.81724 17.3557 5.8171 17.3558C5.72346 17.4487 5.59691 17.5008 5.46501 17.5008C5.33292 17.5008 5.20619 17.4485 5.11251 17.3554L5.11211 17.355M10.764 5.33314L5.11211 17.355M5.11211 17.355C5.06524 17.3085 5.02805 17.2532 5.00266 17.1923C4.97728 17.1314 4.96421 17.066 4.96421 17C4.96421 16.934 4.97728 16.8686 5.00266 16.8077C5.02805 16.7468 5.06524 16.6915 5.11211 16.645L5.11356 16.6436M5.11211 17.355L5.11356 16.6436M5.11356 16.6436L13.5921 8.165C13.5924 8.16475 13.5926 8.16449 13.5929 8.16424C13.7331 8.02495 13.8444 7.85932 13.9204 7.67687C13.9966 7.49408 14.0358 7.29802 14.0358 7.1C14.0358 6.90198 13.9966 6.70592 13.9204 6.52314C13.8443 6.34035 13.7327 6.17445 13.5921 6.035C13.3111 5.75587 12.9311 5.59921 12.535 5.59921C12.1387 5.59921 11.7586 5.75602 11.4775 6.0354L11.4775 6.03541M5.11356 16.6436L11.4775 6.03541M11.4775 6.03541L2.9875 14.4754L2.98604 14.4769M11.4775 6.03541L2.98604 14.4769M2.98604 14.4769C2.33012 15.1343 1.96225 16.0254 1.96334 16.9541M2.98604 14.4769L1.96334 16.9541M1.96334 16.9541C1.96443 17.8828 2.33441 18.7731 2.99187 19.429M1.96334 16.9541L2.99187 19.429M2.99187 19.429C3.64933 20.0849 4.54043 20.4528 5.46913 20.4517M2.99187 19.429L5.46913 20.4517M5.46913 20.4517C6.39764 20.4506 7.28768 20.0808 7.94356 19.4236L5.46913 20.4517ZM7.94398 19.4231L16.4233 10.9438L7.94398 19.4231Z" fill="black" stroke="#91919F"/>
</svg>
